<mxfile host="app.diagrams.net" modified="2023-03-14T09:30:44.717Z" agent="5.0 (Windows NT 10.0; Win64; x64) AppleWebKit/537.36 (KHTML, like Gecko) Chrome/111.0.0.0 Safari/537.36" etag="u2D4zwlWdkaZOZeekXLS" version="21.0.6" type="github">
  <diagram name="第 1 页" id="FFSRGKOhMfZLmXbBMDY2">
    <mxGraphModel dx="1434" dy="788" grid="1" gridSize="10" guides="1" tooltips="1" connect="1" arrows="1" fold="1" page="1" pageScale="1" pageWidth="827" pageHeight="1169" math="0" shadow="0">
      <root>
        <mxCell id="0" />
        <mxCell id="1" parent="0" />
        <mxCell id="MM_uztJiS8vdFqpo3RpH-11" value="request" style="edgeStyle=orthogonalEdgeStyle;rounded=0;orthogonalLoop=1;jettySize=auto;html=1;" edge="1" parent="1" source="MM_uztJiS8vdFqpo3RpH-1" target="MM_uztJiS8vdFqpo3RpH-2">
          <mxGeometry relative="1" as="geometry" />
        </mxCell>
        <mxCell id="MM_uztJiS8vdFqpo3RpH-1" value="client" style="rounded=0;whiteSpace=wrap;html=1;" vertex="1" parent="1">
          <mxGeometry x="350" y="10" width="120" height="60" as="geometry" />
        </mxCell>
        <mxCell id="MM_uztJiS8vdFqpo3RpH-12" value="requestt" style="edgeStyle=orthogonalEdgeStyle;rounded=0;orthogonalLoop=1;jettySize=auto;html=1;" edge="1" parent="1" source="MM_uztJiS8vdFqpo3RpH-2" target="MM_uztJiS8vdFqpo3RpH-4">
          <mxGeometry relative="1" as="geometry">
            <mxPoint as="offset" />
          </mxGeometry>
        </mxCell>
        <mxCell id="MM_uztJiS8vdFqpo3RpH-14" style="edgeStyle=orthogonalEdgeStyle;rounded=0;orthogonalLoop=1;jettySize=auto;html=1;exitX=1;exitY=0.5;exitDx=0;exitDy=0;entryX=0.5;entryY=0;entryDx=0;entryDy=0;entryPerimeter=0;" edge="1" parent="1" source="MM_uztJiS8vdFqpo3RpH-2" target="MM_uztJiS8vdFqpo3RpH-7">
          <mxGeometry relative="1" as="geometry" />
        </mxCell>
        <mxCell id="MM_uztJiS8vdFqpo3RpH-2" value="server" style="rounded=0;whiteSpace=wrap;html=1;" vertex="1" parent="1">
          <mxGeometry x="350" y="120" width="120" height="60" as="geometry" />
        </mxCell>
        <mxCell id="MM_uztJiS8vdFqpo3RpH-4" value="kafka" style="ellipse;whiteSpace=wrap;html=1;aspect=fixed;" vertex="1" parent="1">
          <mxGeometry x="370" y="240" width="80" height="80" as="geometry" />
        </mxCell>
        <mxCell id="MM_uztJiS8vdFqpo3RpH-6" value="account topic" style="ellipse;whiteSpace=wrap;html=1;" vertex="1" parent="1">
          <mxGeometry x="350" y="370" width="120" height="80" as="geometry" />
        </mxCell>
        <mxCell id="MM_uztJiS8vdFqpo3RpH-7" value="ksql" style="shape=cylinder3;whiteSpace=wrap;html=1;boundedLbl=1;backgroundOutline=1;size=15;" vertex="1" parent="1">
          <mxGeometry x="660" y="370" width="60" height="80" as="geometry" />
        </mxCell>
        <mxCell id="MM_uztJiS8vdFqpo3RpH-8" value="partition 0" style="whiteSpace=wrap;html=1;aspect=fixed;" vertex="1" parent="1">
          <mxGeometry x="310" y="510" width="80" height="80" as="geometry" />
        </mxCell>
        <mxCell id="MM_uztJiS8vdFqpo3RpH-9" value="partition 1" style="whiteSpace=wrap;html=1;aspect=fixed;" vertex="1" parent="1">
          <mxGeometry x="440" y="510" width="80" height="80" as="geometry" />
        </mxCell>
      </root>
    </mxGraphModel>
  </diagram>
</mxfile>
